<mxfile host="app.diagrams.net" agent="Mozilla/5.0 (Macintosh; Intel Mac OS X 10_15_7) AppleWebKit/537.36 (KHTML, like Gecko) Chrome/128.0.0.0 Safari/537.36" version="24.7.14">
  <diagram name="Page-1" id="TL1phVPbDf8K_MiM7TcT">
    <mxGraphModel>
      <root>
        <mxCell id="0" />
        <mxCell id="1" parent="0" />
        <mxCell id="2" value="Square Rect" style="whiteSpace=wrap;strokeWidth=2;" vertex="1" parent="1">
          <mxGeometry x="8" y="107" width="145" height="49" as="geometry" />
        </mxCell>
        <mxCell id="3" value="Round Rect" style="rounded=1;arcSize=40;strokeWidth=2" vertex="1" parent="1">
          <mxGeometry x="203" y="107" width="110" height="49" as="geometry" />
        </mxCell>
        <mxCell id="4" value="Decision" style="rhombus;strokeWidth=2;whiteSpace=wrap;" vertex="1" parent="1">
          <mxGeometry x="363" y="77" width="108" height="108" as="geometry" />
        </mxCell>
        <mxCell id="5" value="Result 1" style="whiteSpace=wrap;strokeWidth=2;" vertex="1" parent="1">
          <mxGeometry x="567" y="8" width="117" height="49" as="geometry" />
        </mxCell>
        <mxCell id="6" value="Result 2" style="whiteSpace=wrap;strokeWidth=2;" vertex="1" parent="1">
          <mxGeometry x="567" y="107" width="117" height="49" as="geometry" />
        </mxCell>
        <mxCell id="7" value="Result 3" style="whiteSpace=wrap;strokeWidth=2;" vertex="1" parent="1">
          <mxGeometry x="567" y="205" width="117" height="49" as="geometry" />
        </mxCell>
        <mxCell id="8" value="Final Result" style="rounded=1;arcSize=40;strokeWidth=2" vertex="1" parent="1">
          <mxGeometry x="799" y="156" width="113" height="49" as="geometry" />
        </mxCell>
        <mxCell id="9" value="Final Result" style="rounded=1;arcSize=40;strokeWidth=2" vertex="1" parent="1">
          <mxGeometry x="799" y="254" width="113" height="49" as="geometry" />
        </mxCell>
        <mxCell id="10" value="Final Output" style="whiteSpace=wrap;strokeWidth=2;" vertex="1" parent="1">
          <mxGeometry x="1008" y="156" width="150" height="49" as="geometry" />
        </mxCell>
        <mxCell id="11" value="Final Output" style="whiteSpace=wrap;strokeWidth=2;" vertex="1" parent="1">
          <mxGeometry x="1008" y="254" width="150" height="49" as="geometry" />
        </mxCell>
        <mxCell id="12" value="" style="curved=1;startArrow=none;endArrow=block;exitX=1;exitY=0.48;entryX=0;entryY=0.48;" edge="1" parent="1" source="2" target="3">
          <mxGeometry relative="1" as="geometry">
            <Array as="points" />
          </mxGeometry>
        </mxCell>
        <mxCell id="13" value="" style="curved=1;startArrow=none;endArrow=block;exitX=1;exitY=0.48;entryX=0;entryY=0.5;" edge="1" parent="1" source="3" target="4">
          <mxGeometry relative="1" as="geometry">
            <Array as="points" />
          </mxGeometry>
        </mxCell>
        <mxCell id="14" value="One" style="curved=1;startArrow=none;endArrow=block;exitX=1;exitY=0.01;entryX=0;entryY=0.49;" edge="1" parent="1" source="4" target="5">
          <mxGeometry relative="1" as="geometry">
            <Array as="points">
              <mxPoint x="519" y="32" />
            </Array>
          </mxGeometry>
        </mxCell>
        <mxCell id="15" value="Two" style="curved=1;startArrow=none;endArrow=block;exitX=1;exitY=0.5;entryX=0;entryY=0.48;" edge="1" parent="1" source="4" target="6">
          <mxGeometry relative="1" as="geometry">
            <Array as="points" />
          </mxGeometry>
        </mxCell>
        <mxCell id="16" value="Three" style="curved=1;startArrow=none;endArrow=block;exitX=1;exitY=0.98;entryX=0;entryY=0.49;" edge="1" parent="1" source="4" target="7">
          <mxGeometry relative="1" as="geometry">
            <Array as="points">
              <mxPoint x="519" y="229" />
            </Array>
          </mxGeometry>
        </mxCell>
        <mxCell id="17" value="Option 1" style="curved=1;startArrow=none;endArrow=block;exitX=0.99;exitY=0;entryX=0;entryY=0.49;" edge="1" parent="1" source="7" target="8">
          <mxGeometry relative="1" as="geometry">
            <Array as="points">
              <mxPoint x="741" y="180" />
            </Array>
          </mxGeometry>
        </mxCell>
        <mxCell id="18" value="Option 2" style="curved=1;startArrow=none;endArrow=block;exitX=0.99;exitY=0.99;entryX=0;entryY=0.5;" edge="1" parent="1" source="7" target="9">
          <mxGeometry relative="1" as="geometry">
            <Array as="points">
              <mxPoint x="741" y="279" />
            </Array>
          </mxGeometry>
        </mxCell>
        <mxCell id="19" value="Finish" style="curved=1;startArrow=none;endArrow=block;exitX=1;exitY=0.49;entryX=0;entryY=0.49;" edge="1" parent="1" source="8" target="10">
          <mxGeometry relative="1" as="geometry">
            <Array as="points" />
          </mxGeometry>
        </mxCell>
        <mxCell id="20" value="Finish" style="curved=1;startArrow=none;endArrow=block;exitX=1;exitY=0.5;entryX=0;entryY=0.5;" edge="1" parent="1" source="9" target="11">
          <mxGeometry relative="1" as="geometry">
            <Array as="points" />
          </mxGeometry>
        </mxCell>
      </root>
    </mxGraphModel>
  </diagram>
</mxfile>
